<svg width="1200" height="620" viewBox="0 0 1200 620" fill="none" xmlns="http://www.w3.org/2000/svg">
  <rect x="0" y="0" width="1200" height="620" rx="18" fill="#F6F4F0"/>

  <text x="48" y="72" font-family="Inter, Segoe UI, Arial, sans-serif" font-size="26" font-weight="600" fill="#1E1B16">Features</text>
  <text x="48" y="104" font-family="Inter, Segoe UI, Arial, sans-serif" font-size="15" font-weight="500" fill="#7B746B">Core product highlights for the interim presentation</text>

  <!-- Row 1 -->
  <g transform="translate(48,140)">
    <rect width="352" height="130" rx="12" fill="#FFFFFF" stroke="#E6E1DA"/>
    <rect x="16" y="16" width="40" height="40" rx="10" fill="#F9F7F4" stroke="#E6E1DA"/>
    <path d="M36 24 L38 29 L44 30 L39 33 L40 39 L36 36 L32 39 L33 33 L28 30 L34 29 Z" fill="#2F6FE4"/>
    <text x="68" y="42" font-family="Inter, Segoe UI, Arial, sans-serif" font-size="15" font-weight="600" fill="#1E1B16">Prompt-to-site AI</text>
    <text x="68" y="66" font-family="Inter, Segoe UI, Arial, sans-serif" font-size="12.5" font-weight="500" fill="#7B746B">Describe the business, and NOOK generates structure,</text>
    <text x="68" y="84" font-family="Inter, Segoe UI, Arial, sans-serif" font-size="12.5" font-weight="500" fill="#7B746B">copy, and visuals.</text>
  </g>

  <g transform="translate(424,140)">
    <rect width="352" height="130" rx="12" fill="#FFFFFF" stroke="#E6E1DA"/>
    <rect x="16" y="16" width="40" height="40" rx="10" fill="#F9F7F4" stroke="#E6E1DA"/>
    <path d="M36 24 L38 29 L44 30 L39 33 L40 39 L36 36 L32 39 L33 33 L28 30 L34 29 Z" fill="#2F6FE4"/>
    <text x="68" y="42" font-family="Inter, Segoe UI, Arial, sans-serif" font-size="15" font-weight="600" fill="#1E1B16">Page hub</text>
    <text x="68" y="66" font-family="Inter, Segoe UI, Arial, sans-serif" font-size="12.5" font-weight="500" fill="#7B746B">Organize and manage multiple pages in one clean</text>
    <text x="68" y="84" font-family="Inter, Segoe UI, Arial, sans-serif" font-size="12.5" font-weight="500" fill="#7B746B">workspace.</text>
  </g>

  <g transform="translate(800,140)">
    <rect width="352" height="130" rx="12" fill="#FFFFFF" stroke="#E6E1DA"/>
    <rect x="16" y="16" width="40" height="40" rx="10" fill="#F9F7F4" stroke="#E6E1DA"/>
    <path d="M36 24 L38 29 L44 30 L39 33 L40 39 L36 36 L32 39 L33 33 L28 30 L34 29 Z" fill="#2F6FE4"/>
    <text x="68" y="42" font-family="Inter, Segoe UI, Arial, sans-serif" font-size="15" font-weight="600" fill="#1E1B16">Visual editor</text>
    <text x="68" y="66" font-family="Inter, Segoe UI, Arial, sans-serif" font-size="12.5" font-weight="500" fill="#7B746B">Refine text and sections without touching code.</text>
  </g>

  <!-- Row 2 -->
  <g transform="translate(48,294)">
    <rect width="352" height="130" rx="12" fill="#FFFFFF" stroke="#E6E1DA"/>
    <rect x="16" y="16" width="40" height="40" rx="10" fill="#F9F7F4" stroke="#E6E1DA"/>
    <path d="M36 24 L38 29 L44 30 L39 33 L40 39 L36 36 L32 39 L33 33 L28 30 L34 29 Z" fill="#2F6FE4"/>
    <text x="68" y="42" font-family="Inter, Segoe UI, Arial, sans-serif" font-size="15" font-weight="600" fill="#1E1B16">Design controls</text>
    <text x="68" y="66" font-family="Inter, Segoe UI, Arial, sans-serif" font-size="12.5" font-weight="500" fill="#7B746B">Tune colors, style, and appearance with simple</text>
    <text x="68" y="84" font-family="Inter, Segoe UI, Arial, sans-serif" font-size="12.5" font-weight="500" fill="#7B746B">settings.</text>
  </g>

  <g transform="translate(424,294)">
    <rect width="352" height="130" rx="12" fill="#FFFFFF" stroke="#E6E1DA"/>
    <rect x="16" y="16" width="40" height="40" rx="10" fill="#F9F7F4" stroke="#E6E1DA"/>
    <path d="M36 24 L38 29 L44 30 L39 33 L40 39 L36 36 L32 39 L33 33 L28 30 L34 29 Z" fill="#2F6FE4"/>
    <text x="68" y="42" font-family="Inter, Segoe UI, Arial, sans-serif" font-size="15" font-weight="600" fill="#1E1B16">Usage analytics</text>
    <text x="68" y="66" font-family="Inter, Segoe UI, Arial, sans-serif" font-size="12.5" font-weight="500" fill="#7B746B">Track activity and trends to understand momentum.</text>
  </g>

  <g transform="translate(800,294)">
    <rect width="352" height="130" rx="12" fill="#FFFFFF" stroke="#E6E1DA"/>
    <rect x="16" y="16" width="40" height="40" rx="10" fill="#F9F7F4" stroke="#E6E1DA"/>
    <path d="M36 24 L38 29 L44 30 L39 33 L40 39 L36 36 L32 39 L33 33 L28 30 L34 29 Z" fill="#2F6FE4"/>
    <text x="68" y="42" font-family="Inter, Segoe UI, Arial, sans-serif" font-size="15" font-weight="600" fill="#1E1B16">Logging tools</text>
    <text x="68" y="66" font-family="Inter, Segoe UI, Arial, sans-serif" font-size="12.5" font-weight="500" fill="#7B746B">Debug faster with in-app logging and crash context.</text>
  </g>
</svg>
